<svg width="31" height="30" viewBox="0 0 31 30" fill="none" xmlns="http://www.w3.org/2000/svg">
<path d="M14.568 1.14806C11.2463 1.16939 8.071 2.85044 5.68553 5.38696C2.55499 8.71567 0.883892 13.4675 2.10956 17.6971C3.06639 17.1817 4.02891 16.7604 4.9769 16.4447C4.60618 9.22831 10.2062 4.08601 16.6974 4.11987C16.9467 3.33677 17.299 2.5198 17.7595 1.66632C16.8031 1.34815 15.8414 1.17648 14.8902 1.15175C14.7828 1.14899 14.6752 1.14741 14.5679 1.14812L14.568 1.14806ZM16.3953 5.21306C10.6791 5.3153 5.85352 9.73063 6.06094 16.1297C6.70465 15.9697 7.33758 15.8612 7.95235 15.8111C8.80723 15.7416 9.6334 15.784 10.4006 15.9539L16.8073 9.54724C16.4938 8.82812 16.3085 8.0597 16.2598 7.27673C16.2179 6.6172 16.268 5.93007 16.4117 5.21306H16.3953ZM19.9604 8.77075L18.9717 9.75952L20.7588 11.5429L21.7439 10.5578L19.9604 8.77075ZM17.7851 10.1184L10.7905 17.113L13.4053 19.7241L20.3963 12.7331L17.7851 10.1184ZM28.9106 12.8192C28.063 13.2767 27.2514 13.6282 26.4735 13.8776C26.5174 20.3823 21.3616 25.9948 14.1286 25.6128C13.8128 26.5564 13.3931 27.5148 12.8798 28.4675C17.1097 29.6933 21.863 28.0221 25.1919 24.8915C28.5343 21.7479 30.3783 17.2321 28.9108 12.8192L28.9106 12.8192ZM20.9419 13.7366L14.6027 20.0757C14.792 20.8704 14.8422 21.7306 14.7694 22.6227C14.7189 23.2426 14.6081 23.8811 14.4454 24.5305C20.8664 24.7484 25.2927 19.9012 25.3786 14.165C24.6554 14.3118 23.963 14.3644 23.2985 14.3225C22.4614 14.2698 21.6756 14.0678 20.9419 13.7366ZM10.4316 18.2996L1.67737 27.0539V28.9453H3.35643L12.2151 20.0866L10.4316 18.2996Z" fill="#FDFDFD"/>
</svg>
