<svg width="25" height="24" viewBox="0 0 25 24" fill="none" xmlns="http://www.w3.org/2000/svg">
<path d="M13.02 0.192052C12.8751 0.068109 12.6907 0 12.5 0C12.3093 0 12.1249 0.068109 11.98 0.192052L0.5 10.032V21.6C0.5 22.2365 0.752856 22.847 1.20294 23.2971C1.65303 23.7471 2.26348 24 2.89999 24H9.29998C9.51215 24 9.71564 23.9157 9.86567 23.7657C10.0157 23.6157 10.1 23.4122 10.1 23.2V18.4C10.1 17.7635 10.3528 17.153 10.8029 16.703C11.253 16.2529 11.8635 16 12.5 16C13.1365 16 13.7469 16.2529 14.197 16.703C14.6471 17.153 14.9 17.7635 14.9 18.4V23.2C14.9 23.4122 14.9843 23.6157 15.1343 23.7657C15.2843 23.9157 15.4878 24 15.7 24H22.1C22.7365 24 23.3469 23.7471 23.797 23.2971C24.2471 22.847 24.4999 22.2365 24.4999 21.6V10.032L13.02 0.192052Z" fill="#FDFDFD"/>
</svg>
