<svg width="26" height="21" viewBox="0 0 26 21" fill="none" xmlns="http://www.w3.org/2000/svg">
<path d="M13.11 2.02497C14.9525 1.11919 16.9897 0.681171 19.0416 0.749627C21.0935 0.818083 23.097 1.3909 24.875 2.41747C25.0433 2.51467 25.1867 2.64979 25.2937 2.8121C25.4007 2.97441 25.4683 3.15944 25.4912 3.35247L25.5 3.49997V19.75C25.5 19.9694 25.4422 20.1849 25.3325 20.375C25.2228 20.565 25.065 20.7228 24.875 20.8325C24.685 20.9422 24.4694 20.9999 24.25 20.9999C24.0306 20.9999 23.815 20.9422 23.625 20.8325C22.1048 19.9548 20.3804 19.4927 18.625 19.4927C16.8696 19.4927 15.1452 19.9548 13.625 20.8325C13.435 20.9422 13.2194 20.9999 13 20.9999C12.7806 20.9999 12.565 20.9422 12.375 20.8325C10.9108 19.987 9.25617 19.5265 7.56572 19.4942C5.87527 19.4618 4.20421 19.8586 2.70875 20.6475L2.3 20.8725L2.17125 20.9275L2.11 20.9475L1.9725 20.98L1.89625 20.9925L1.75 21H1.6975L1.56 20.985L1.46375 20.9675L1.32875 20.9275L1.17125 20.8575L1.0525 20.7875L0.94125 20.7037L0.86625 20.6337L0.775 20.5312L0.695 20.42L0.6675 20.375L0.6275 20.3L0.5725 20.1712L0.5525 20.11L0.52 19.9725L0.5075 19.8962L0.5025 19.835L0.5 19.75V3.49997C0.500006 3.28056 0.557766 3.06501 0.667476 2.87499C0.777186 2.68497 0.934981 2.52718 1.125 2.41747C2.90299 1.3909 4.90648 0.818083 6.95841 0.749627C9.01034 0.681171 11.0475 1.11919 12.89 2.02497L13 2.07997L13.11 2.02497Z" fill="#FDFDFD"/>
</svg>
