<svg width="31" height="30" viewBox="0 0 31 30" fill="none" xmlns="http://www.w3.org/2000/svg">
<path fill-rule="evenodd" clip-rule="evenodd" d="M15.5 27.1875C17.6396 27.1906 19.7419 26.6279 21.5938 25.5562V21.5625C21.5938 20.4436 21.1493 19.3706 20.3581 18.5794C19.5669 17.7882 18.4939 17.3438 17.375 17.3438H13.625C12.5061 17.3438 11.4331 17.7882 10.6419 18.5794C9.85072 19.3706 9.40625 20.4436 9.40625 21.5625V25.5562C11.2581 26.6279 13.3604 27.1906 15.5 27.1875ZM24.4062 21.5625V23.3194C26.0276 21.5837 27.1064 19.4121 27.5101 17.0716C27.9139 14.731 27.6249 12.3235 26.6787 10.1449C25.7326 7.96638 24.1705 6.11177 22.1845 4.80908C20.1985 3.50639 17.8751 2.81239 15.5 2.81239C13.1249 2.81239 10.8015 3.50639 8.81549 4.80908C6.82949 6.11177 5.2674 7.96638 4.32125 10.1449C3.3751 12.3235 3.08613 14.731 3.48986 17.0716C3.89359 19.4121 4.97243 21.5837 6.59375 23.3194V21.5625C6.59319 20.1128 7.04077 18.6983 7.8752 17.5128C8.70962 16.3273 9.89011 15.4287 11.255 14.94C10.547 14.1256 10.0882 13.1248 9.93325 12.0568C9.77835 10.9889 9.93392 9.89889 10.3814 8.91691C10.8289 7.93493 11.5494 7.10239 12.4569 6.5186C13.3645 5.9348 14.4209 5.62439 15.5 5.62439C16.5791 5.62439 17.6355 5.9348 18.5431 6.5186C19.4506 7.10239 20.1711 7.93493 20.6186 8.91691C21.0661 9.89889 21.2216 10.9889 21.0667 12.0568C20.9118 13.1248 20.453 14.1256 19.745 14.94C21.1099 15.4287 22.2904 16.3273 23.1248 17.5128C23.9592 18.6983 24.4068 20.1128 24.4062 21.5625ZM15.5 30C19.4782 30 23.2936 28.4196 26.1066 25.6066C28.9196 22.7936 30.5 18.9782 30.5 15C30.5 11.0218 28.9196 7.20644 26.1066 4.3934C23.2936 1.58035 19.4782 0 15.5 0C11.5218 0 7.70644 1.58035 4.8934 4.3934C2.08035 7.20644 0.5 11.0218 0.5 15C0.5 18.9782 2.08035 22.7936 4.8934 25.6066C7.70644 28.4196 11.5218 30 15.5 30ZM18.3125 11.25C18.3125 11.9959 18.0162 12.7113 17.4887 13.2387C16.9613 13.7662 16.2459 14.0625 15.5 14.0625C14.7541 14.0625 14.0387 13.7662 13.5113 13.2387C12.9838 12.7113 12.6875 11.9959 12.6875 11.25C12.6875 10.5041 12.9838 9.78871 13.5113 9.26126C14.0387 8.73382 14.7541 8.4375 15.5 8.4375C16.2459 8.4375 16.9613 8.73382 17.4887 9.26126C18.0162 9.78871 18.3125 10.5041 18.3125 11.25Z" fill="#FDFDFD"/>
</svg>
